# xmcd
#
# Track frame offsets:
#	150
#	22099
#	35834
#	50093
#	71942
#	89424
#	106115
#	120618
#	136861
#	152856
#	174805
#	188540
#	202799
#	224648
#	242130
#	258821
#	273324
#	289567
#
# Disc length: 4074 seconds
#
# Revision: 0
# Processed by: cddbd v1.5.2PL0 Copyright (c) Steve Scherf et al.
# Submitted via: audiograbber 1.83.01
#
DISCID=050fe812
DTITLE=Pop Hits Monthly - PHMC1008
DYEAR=2010
DGENRE=Country
TTITLE0=Urban, Keith - I'm In
TTITLE1=Moore, Justin - How I Got This Way
TTITLE2=Rimes, LeAnn - Swingin
TTITLE3=Ingram, Jack - Barbie Doll
TTITLE4=Bice, Bo - You Take Yourself With You
TTITLE5=Armiger, Katie - Leaving Home
TTITLE6=Thompson Square - Let's Fight
TTITLE7=Fast Ryde - Top Down
TTITLE8=O'Neil, Todd - Somethin' With Some Additude
TTITLE9=None - None
TTITLE10=None - None
TTITLE11=None - None
TTITLE12=None - None
TTITLE13=None - None
TTITLE14=None - None
TTITLE15=None - None
TTITLE16=None - None
TTITLE17=None - None
EXTD=
EXTT0=
EXTT1=
EXTT2=
EXTT3=
EXTT4=
EXTT5=
EXTT6=
EXTT7=
EXTT8=
EXTT9=
EXTT10=
EXTT11=
EXTT12=
EXTT13=
EXTT14=
EXTT15=
EXTT16=
EXTT17=
PLAYORDER=
